<svg height="512" viewBox="0 0 88 88" width="512" xmlns="http://www.w3.org/2000/svg"><g id="Pentool"><path d="m65.8945 51.5527-19-38a1 1 0 0 0 -1.8945.4473v32.41a1 1 0 0 0 .5947.914 4 4 0 1 1 -3.1894 0 1 1 0 0 0 .5947-.914v-32.41a1 1 0 0 0 -1.8945-.4473l-19 38a1.0008 1.0008 0 0 0 0 .8946l9 18a1 1 0 0 0 .8945.5527h24a1 1 0 0 0 .8945-.5527l9-18a1.0008 1.0008 0 0 0 0-.8946z" fill="#ffba00"/><path d="m55.3768 6h17.6232a1 1 0 0 0 0-2h-26a1 1 0 0 0 -1 1c0 .0132.007.0242.0075.0373l-.0031.0106a.9991.9991 0 0 0 .9033 1.0878 30.8394 30.8394 0 0 1 28.0923 30.8643 1 1 0 0 0 2 0 32.82 32.82 0 0 0 -21.6232-31z" fill="#2d64bc"/><path d="m41 4h-26a1 1 0 0 0 0 2h17.6232a32.82 32.82 0 0 0 -21.6232 31 1 1 0 0 0 2 0 30.8394 30.8394 0 0 1 28.0923-30.8643.9991.9991 0 0 0 .9033-1.0878l-.0032-.0105c.0005-.0132.0076-.0242.0076-.0374a1 1 0 0 0 -1-1z" fill="#2d64bc"/><rect fill="#ffba00" height="12" rx="1" width="30" x="29" y="75"/><rect fill="#ff8e00" height="8" rx="1" width="36" x="26" y="69"/><g fill="#6499f3"><rect height="8" rx="1" width="8" x="40" y="1"/><rect height="8" rx="1" width="8" x="8" y="36"/><rect height="8" rx="1" width="8" x="72" y="36"/><circle cx="76" cy="5" r="4"/><circle cx="12" cy="5" r="4"/></g></g></svg>