<svg height="512pt" viewBox="0 -16 512 512" width="512pt" xmlns="http://www.w3.org/2000/svg"><path d="m512 360-145.902344-109.5-14.097656-10.5v74.398438c-47.699219-5.097657-69.601562-33.597657-92.101562-63.898438-.296876-.601562-.898438-.898438-1.199219-1.5l-45-60.300781c-59.097657-79.199219-96.699219-113.699219-198.699219-113.699219h-15v90h15c69.300781 0 101.5 42.597656 131.5 83.699219.300781.601562.898438 1.199219 1.199219 1.800781h.300781c9.300781 12.898438 18.601562 25.5 28.5 35.398438 45 74.101562 103.800781 113.703124 175.5 118.5v75.601562zm0 0" fill="#43a2dd"/><path d="m352 480v-75.601562c-71.699219-4.796876-130.5-44.398438-175.5-118.5-9.898438-9.898438-19.199219-22.5-28.5-35.398438h111.898438c22.5 30.300781 44.402343 58.800781 92.101562 63.898438v-74.398438l14.097656 10.5 145.902344 109.5zm0 0" fill="#1789c9"/><path d="m258.402344 250.5c-41.101563 66.300781-105.703125 154.5-243.402344 154.5h-15v-90h15c63.300781 0 103-27.898438 132.699219-64.5zm0 0"/><path d="m512 120-160-120v75.597656c-62.402344 4.503906-114.601562 37.5-151.800781 96.300782l-10.800781 17.703124c-13.199219 20.699219-26.101563 42-41.699219 60.898438-29.699219 36.601562-69.398438 64.5-132.699219 64.5h-15v90h15c137.699219 0 202.300781-88.199219 243.402344-154.5 3.296875-5.101562 6.296875-10.199219 9.296875-15l9.902343-16.199219c20.097657-31.5 44.398438-48.902343 74.398438-53.402343v74.101562zm0 0" fill="#99d6ff"/><path d="m258.402344 250.5c-41.101563 66.300781-105.703125 154.5-243.402344 154.5h-15v-90h15c63.300781 0 103-27.898438 132.699219-64.5zm0 0" fill="#78b9eb"/></svg>