<svg id="Capa_1" enable-background="new 0 0 512 512" height="512" viewBox="0 0 512 512" width="512" xmlns="http://www.w3.org/2000/svg"><g><path d="m301.586 487.356c-21.273.886-40.98-3.667-58.462-11.693l69.032-146.243c4.028-2.06 8.097-4.512 12.207-7.397 50.386-35.407 104.82-21.912 112.855 33.511 8.819 60.833-18.512 126.959-135.632 131.822z" fill="#75cdd5"/><path d="m437.218 355.535c-6.447-44.466-42.76-61.936-82.887-48.824 17.949 7.268 31.076 23.757 34.71 48.824 8.245 56.875-15.118 118.373-113.913 130.107 8.497 1.466 17.332 2.094 26.457 1.714 117.121-4.863 144.452-70.989 135.633-131.821z" fill="#2abcc8"/><path d="m491.189 83.683c-58.874-68.537-139.495 36.2-160.418 72.122-53.971 92.633-165.992 25.146-269.586 85.957-70.113 41.146-79.498 145.842-30.575 209.064 48.645 62.851 126.484 84.721 207.538 28.484 1.71-1.185 3.369-2.4 4.976-3.647l69.032-146.243c10.734-44.38 22.993-82.249 61.903-92.138 100.194-25.466 176.406-84.587 117.13-153.599z" fill="#c2fae3"/><path d="m491.189 83.683c-24.824-28.899-53.515-26.991-79.967-12.425 4.545 3.267 9.005 7.371 13.346 12.425 59.276 69.011-16.936 128.133-117.131 153.599-37.627 9.564-50.331 45.293-60.835 87.772-.698 2.823-1.177 5.697-1.495 8.588-9.711 88.324-65.605 156.496-131.604 174.22 37.863 9.431 80.782 1.882 124.645-28.552 1.71-1.185 3.369-2.4 4.976-3.647l69.032-146.243c10.734-44.38 22.993-82.249 61.903-92.138 100.194-25.466 176.406-84.587 117.13-153.599z" fill="#9cf8d2"/><path d="m256 405.121-54.911 41.225c-33.379-32.994-47.8-77.108-31.911-97.868 19.666-25.679 45.361-16.693 75.559-11.663z" fill="#bd80e1"/><path d="m244.737 336.815c-5.225 42.439-21.132 80.087-43.648 109.531 11.808 11.673 25.984 21.956 42.035 29.317 46.399-35.665 56.711-95.25 69.032-146.243-24.237 12.411-46.87 10.818-67.419 7.395z" fill="#af66da"/><circle cx="300.728" cy="21.662" fill="#6e61b6" r="21.342"/><path d="m300.728.32c-3.892 0-7.529 1.059-10.671 2.878 6.373 3.692 10.671 10.569 10.671 18.464s-4.298 14.772-10.671 18.464c3.142 1.82 6.779 2.879 10.671 2.879 11.787 0 21.342-9.555 21.342-21.342 0-11.788-9.555-21.343-21.342-21.343z" fill="#6354b1"/><circle cx="207.624" cy="100.887" fill="#fe7ab6" r="44.923"/><path d="m207.624 55.964c-5.999 0-11.718 1.185-16.95 3.319 16.406 6.691 27.973 22.793 27.973 41.604s-11.567 34.913-27.973 41.604c5.232 2.134 10.951 3.319 16.95 3.319 24.81 0 44.923-20.113 44.923-44.923s-20.113-44.923-44.923-44.923z" fill="#fe5ca7"/></g></svg>